<svg width="88" height="74" viewBox="0 0 88 74" fill="none" xmlns="http://www.w3.org/2000/svg">
<path d="M82.4917 4.98086H78.8969V1.43546C78.8969 0.707591 78.3317 0.120605 77.6308 0.120605H69.9664C69.2656 0.120605 68.7004 0.707591 68.7004 1.43546V4.98086H26.6708V1.43546C26.6708 0.707591 26.1056 0.120605 25.4047 0.120605H17.7404C17.0395 0.120605 16.4743 0.707591 16.4743 1.43546V4.98086H13.5125C10.4152 4.98086 7.88298 7.61056 7.88298 10.8273V42.9707C7.88298 43.6986 8.4482 44.2855 9.14907 44.2855C9.84994 44.2855 10.4152 43.6986 10.4152 42.9707V10.8273C10.4152 9.06629 11.7943 7.61057 13.5125 7.61057H82.5143C83.8708 7.61057 84.9786 8.76106 84.9786 10.1698V53.8417C84.9786 55.2505 83.8708 56.401 82.5143 56.401H79.8012V51.3998C79.8012 50.672 79.236 50.085 78.5351 50.085H64.8795C64.1786 50.085 63.6134 50.672 63.6134 51.3998V56.401H43.1751L47.9908 55.0392C50.4778 54.3348 52.6708 52.8556 54.2986 50.7894L62.483 40.4584C62.6412 40.2471 62.7543 39.9888 62.7769 39.7305L63.5004 29.8691C63.5682 28.9065 63.003 27.9438 62.1438 27.5681C62.5282 27.3334 62.7995 26.9107 62.7995 26.4176C62.7995 25.6898 62.2343 25.1028 61.5334 25.1028H55.9717C55.2708 25.1028 54.7056 25.6898 54.7056 26.4176C54.7056 27.1455 55.2708 27.7325 55.9717 27.7325H60.1317C59.996 27.8264 59.8604 27.9438 59.7473 28.0612L55.0899 32.898C54.1856 33.8372 53.4395 35.0111 52.6482 36.0442C52.2186 36.6077 52.2864 37.453 52.8517 37.8991C53.3943 38.3452 54.2082 38.2748 54.6378 37.6878L56.1073 35.8094L59.8604 39.707L52.4221 49.1223C51.1108 50.7659 49.3925 51.9399 47.403 52.5034L27.3265 58.5141C25.7665 59.0307 26.5578 61.543 28.0951 61.0264L32.5038 59.5472V70.6061H30.7404C30.0395 70.6061 29.4743 71.1931 29.4743 71.9209C29.4743 72.6488 30.0395 73.2358 30.7404 73.2358H38.5178C39.2186 73.2358 39.7838 72.6488 39.7838 71.9209C39.7838 71.1931 39.2186 70.6061 38.5178 70.6061H35.0586V59.0542H82.5595C85.3177 59.0542 87.556 56.7297 87.556 53.8652V10.1933C87.4882 7.30533 85.2499 4.98086 82.4917 4.98086ZM71.2099 2.75031H76.3421V4.95738H71.2099V2.75031ZM18.9838 2.75031H24.116V4.95738H18.9838V2.75031ZM60.9004 30.5266L60.4482 36.6312L57.7351 33.8137L60.9004 30.5266ZM66.1004 56.401V52.7147H77.2238V56.401H66.1004Z" fill="white"/>
<path d="M24.5911 70.6054H8.2676V63.5851C8.2676 59.124 9.26238 54.6864 11.1389 50.6948C12.1789 48.5112 14.3493 47.1025 16.7006 47.1025H38.1337C42.6102 47.1025 46.9737 45.4589 50.4102 42.477C50.9528 42.0074 51.0206 41.1856 50.5685 40.6221C50.1163 40.0586 49.325 39.9882 48.7824 40.4578C45.798 43.0405 42.0224 44.4728 38.1563 44.4728H28.9319C30.3563 42.9231 31.238 40.8334 31.238 38.5325V33.6722C34.5163 33.4374 37.0937 30.6199 37.0937 27.1684C37.0937 23.576 34.2676 20.6411 30.8085 20.6411C28.6832 20.5941 26.6711 21.1107 25.2015 22.7777C24.478 23.5995 23.438 24.0691 22.3754 24.0691H18.8711C15.9546 24.0691 13.5806 26.5344 13.5806 29.5633V39.4716C13.5806 40.5986 13.8293 41.7022 14.485 42.6179C14.7789 43.0405 15.1406 43.3927 15.5476 43.6745C15.9998 43.9797 16.6328 44.0971 16.9946 44.4728C13.5806 44.4023 10.3476 46.3511 8.85543 49.5443C6.79804 53.9115 5.71282 58.7483 5.71282 63.6086V70.6289H1.93717C1.2363 70.6289 0.671082 71.2159 0.671082 71.9438C0.671082 72.6716 1.2363 73.2586 1.93717 73.2586H24.5911C25.2919 73.2586 25.8572 72.6716 25.8572 71.9438C25.8798 71.1924 25.2919 70.6054 24.5911 70.6054ZM22.6015 44.4258C21.9006 44.3788 21.1998 44.191 20.5667 43.8858C20.8606 43.7214 21.1546 43.5336 21.4033 43.3223C22.4659 42.4066 23.0537 41.0682 23.0537 39.5421V33.6722H28.6832V38.509C28.6832 41.7726 26.1285 44.4493 22.9633 44.4493C22.8276 44.4493 22.7146 44.4493 22.6015 44.4258ZM16.1354 39.4482V29.5398C16.1354 27.9667 17.3789 26.6753 18.8937 26.6753H22.3754C24.1615 26.6753 25.8572 25.9005 27.078 24.5387C28.0728 23.4117 29.4293 23.2003 30.8311 23.2473C32.8885 23.2473 34.5615 24.9848 34.5615 27.1214C34.5615 29.2581 32.8885 30.9955 30.8311 30.9955H21.7876C21.0867 30.9955 20.5215 31.5825 20.5215 32.3104V39.5186C20.5215 41.0682 19.2102 42.0309 17.7859 41.7491C16.6554 41.5613 16.1354 40.5986 16.1354 39.4482Z" fill="white"/>
<path d="M44.2151 20.2898H51.1334C51.8343 20.2898 52.3995 19.7028 52.3995 18.9749V14.1147C52.3995 13.3868 51.8343 12.7998 51.1334 12.7998H44.2151C43.5143 12.7998 42.9491 13.3868 42.9491 14.1147V18.9749C42.9264 19.7028 43.4917 20.2898 44.2151 20.2898ZM45.4812 15.4295H49.8673V17.6366H45.4812V15.4295Z" fill="white"/>
<path d="M42.9265 28.8123C42.9265 29.5402 43.4917 30.1272 44.1925 30.1272H51.1108C51.8117 30.1272 52.3769 29.5402 52.3769 28.8123V23.9521C52.3769 23.2242 51.8117 22.6372 51.1108 22.6372H44.1925C43.4917 22.6372 42.9265 23.2242 42.9265 23.9521V28.8123ZM45.4812 25.2904H49.8673V27.4975H45.4812V25.2904Z" fill="white"/>
<path d="M55.9267 17.848H78.4902C79.1911 17.848 79.7563 17.261 79.7563 16.5331C79.7563 15.8052 79.1911 15.2183 78.4902 15.2183H55.9267C55.2259 15.2183 54.6606 15.8052 54.6606 16.5331C54.6606 17.261 55.2259 17.848 55.9267 17.848Z" fill="white"/>
</svg>
