<svg width="68" height="86" viewBox="0 0 68 86" fill="none" xmlns="http://www.w3.org/2000/svg">
<path d="M5.74363 86H43.4185C44.1759 86 44.7896 85.4361 44.7896 84.7402C44.7896 84.0443 44.1759 83.4805 43.4185 83.4805H15.3856V71.9379C15.3856 71.242 14.7717 70.6782 14.0145 70.6782C13.2572 70.6782 12.6434 71.242 12.6434 71.9379V83.4806H5.74326C3.59356 83.4806 2.58407 82.6334 2.89522 80.5064C6.64709 63.6618 6.65513 62.3027 7.26865 60.9223C7.3756 60.7848 7.96682 58.8409 10.8655 57.7104C11.1651 57.5976 10.9783 57.6731 12.009 57.3846C12.0726 57.3678 11.7584 57.4659 16.6824 55.895L19.9667 61.4655C20.3274 62.0773 21.1592 62.3049 21.8253 61.9732C22.4911 61.6418 22.7385 60.8772 22.3778 60.2654L19.3073 55.0572L21.4071 54.387C22.4193 56.104 31.3817 71.3047 32.3559 72.9568C32.9572 73.9801 34.4881 74.0312 35.1934 73.1376C35.3211 72.9758 34.5912 74.1798 46.2466 54.3813L48.346 55.0513L37.2465 73.9158C35.7833 76.4026 31.8932 76.4027 30.4281 73.9185L25.4258 65.434C25.065 64.8223 24.2332 64.5945 23.5672 64.9264C22.9014 65.258 22.654 66.0224 23.0147 66.6341L28.0172 75.1188C30.5194 79.3619 37.1617 79.358 39.6587 75.1141L50.9703 55.889C55.8834 57.4563 55.5953 57.3668 55.6589 57.3836C56.6254 57.6542 56.5179 57.6021 56.8026 57.7091C57.851 58.1194 58.4768 58.5929 58.4585 58.5805C59.5336 59.3772 60.2749 60.2977 60.6711 61.653C60.736 61.868 64.8063 80.4105 64.823 81.0362C64.8637 82.6178 64.1204 83.4806 61.9289 83.4806H55.0284V71.9379C55.0284 71.242 54.4147 70.6782 53.6573 70.6782C52.8999 70.6782 52.2862 71.242 52.2862 71.9379V83.4806H49.8166C49.0592 83.4806 48.4455 84.0445 48.4455 84.7404C48.4455 85.4363 49.0592 86.0002 49.8166 86.0002H61.9285C65.1767 86.0002 67.2171 84.4841 67.5264 81.8419C67.6012 81.2115 67.5573 80.4374 67.4738 80.051C63.3036 60.8116 63.4839 61.6308 63.4634 61.5517C62.9166 59.1199 61.3791 57.1007 58.8867 55.8357C57.7209 55.2426 57.0487 55.1502 56.4609 54.9739L46.2159 51.7043L42.8015 49.5527V47.1121C47.7945 44.3868 50.9732 39.6932 51.5544 34.6141C55.7267 34.7918 58.6347 31.1278 56.8854 27.9199V17.6504C56.8854 10.2238 52.4895 7.64009 51.1464 7.02431C44.5746 -0.183592 32.3034 -2.03226 23.0008 2.35359L22.9829 2.36182C22.8233 2.44799 20.906 3.26297 18.5453 5.07671C17.9725 5.5319 17.9098 6.3274 18.4051 6.85365C18.9012 7.38057 19.7672 7.43685 20.3391 6.98249C29.4497 -0.0463604 42.9724 1.75981 49.2239 8.84224C49.3778 9.01643 49.5652 9.14493 49.7939 9.22354C49.9716 9.28904 54.1434 10.9022 54.1434 17.6506V25.6012C53.3827 25.3053 52.5487 25.1536 51.6599 25.1764V21.056C51.6599 20.0107 50.8028 19.1468 49.6665 19.0461C47.3625 18.8416 46.0713 17.4623 45.3938 16.3414C44.5459 14.9384 42.5218 14.6023 41.1946 15.6443C35.0811 20.4457 28.0421 20.6896 23.2136 20.0498C19.5663 19.5661 16.174 21.8486 15.5837 25.1781C14.696 25.1428 13.8188 25.2873 13.0125 25.6011C13.0178 21.2639 12.4732 16.545 16.3338 11.1375C16.7481 10.555 16.5698 9.77447 15.9358 9.39386C15.302 9.01307 14.4523 9.1765 14.038 9.75936C8.78399 17.1564 10.6639 23.7845 10.2701 27.92C8.52166 31.1267 11.4258 34.7922 15.6009 34.6141C16.2824 40.596 20.293 44.0372 20.3882 44.187L20.3884 44.1872C21.1003 44.8142 22.3787 46.1241 24.8706 47.386V49.5525L21.4566 51.704C8.09497 55.9686 9.45108 55.4511 8.36553 56.0605C6.31382 57.2216 4.89172 58.9976 4.29904 61.1842C4.18222 61.6164 4.37619 60.7997 0.198359 80.0509C0.114265 80.4397 0.0700242 81.1978 0.145526 81.8406C0.454846 84.4839 2.4954 86 5.74363 86ZM36.206 49.2621C36.9771 49.1591 37.807 48.9903 38.2926 48.8643C38.4079 48.8299 39.0699 48.6844 40.0591 48.3347V49.731L33.8358 56.0936L27.6125 49.7309V48.5091C30.4744 49.4223 33.4424 49.6323 36.206 49.2621ZM39.6313 60.326C39.275 60.0857 36.2964 58.0756 35.8672 57.7858L41.6428 51.8807L43.7973 53.2458C42.4137 55.597 40.5293 58.7999 39.6313 60.326ZM37.4462 64.04L37.1072 63.0823L37.627 62.099L38.3149 62.5632L37.4462 64.04ZM29.3494 62.5686L30.0448 62.0995L30.5645 63.0828L30.2225 64.0494L29.3494 62.5686ZM31.8045 57.7858C31.4711 58.0108 28.368 60.1048 28.0404 60.326L23.8747 53.2458L26.0291 51.8807L31.8045 57.7858ZM32.2916 60.583L33.8358 59.541L35.38 60.583L34.7742 61.7293H32.8976L32.2916 60.583ZM33.8354 70.1769L32.0245 67.1055L33.0354 64.2488H34.6369L35.646 67.1004C35.0718 68.0751 34.5389 68.9808 33.8354 70.1769ZM54.6556 29.8965C54.6556 31.2075 53.2251 32.1727 51.6593 32.0966V27.6965C53.2403 27.6197 54.6556 28.5983 54.6556 29.8965ZM49.4025 21.5535C49.4018 21.5535 49.4009 21.5535 49.4001 21.5533C49.4009 21.5535 49.4016 21.5535 49.4025 21.5535ZM22.8213 22.5432C28.2108 23.2579 36.0822 22.9735 42.9755 17.5592L42.9958 17.5641C44.3201 19.7552 46.4097 21.1384 48.9171 21.4972V25.9583L47.3526 26.8067C46.7084 25.9538 45.6364 25.3931 44.4236 25.3931H38.1493C36.6694 25.3931 35.3981 26.2264 34.8597 27.4087H32.2952C31.7568 26.2264 30.4854 25.3931 29.0055 25.3931H22.7312C21.5182 25.3931 20.4462 25.9538 19.8021 26.8067L18.2448 25.962C18.3797 23.8085 20.4983 22.2346 22.8213 22.5432ZM37.3268 28.6685C37.3268 28.2588 37.7036 27.9126 38.1494 27.9126H44.4238C44.8697 27.9126 45.2464 28.2588 45.2464 28.6685V31.1773C45.2464 32.2701 44.2788 33.1592 43.0894 33.1592H39.4834C38.2942 33.1592 37.3266 32.2701 37.3266 31.1773V28.6685H37.3268ZM29.828 28.6685V31.1773C29.828 32.2701 28.8605 33.1592 27.6711 33.1592H24.0652C22.8758 33.1592 21.9083 32.2701 21.9083 31.1773V28.6685C21.9083 28.2588 22.2851 27.9126 22.731 27.9126H29.0053C29.4512 27.9126 29.828 28.2588 29.828 28.6685ZM12.4991 29.8965C12.4991 28.5855 13.9296 27.6204 15.4954 27.6965V32.0966C13.9146 32.1734 12.4991 31.1946 12.4991 29.8965ZM21.9352 42.0001C17.4978 37.2479 18.3532 32.6336 18.2376 28.8842L19.1665 29.3879V31.1775C19.1665 33.6594 21.3641 35.6787 24.0653 35.6787H27.6713C30.3726 35.6787 32.5702 33.6596 32.5702 31.1775V29.9283H34.585V31.1775C34.585 33.6594 36.7825 35.6787 39.4838 35.6787H43.0898C45.791 35.6787 47.9888 33.6596 47.9888 31.1775V29.3879L48.9177 28.8842V32.8232C48.9177 40.316 42.4633 46.8262 33.5778 46.916C33.5594 46.9159 33.3747 46.9147 33.393 46.9149C31.0228 46.8929 29.2015 46.3347 29.3857 46.3822C26.6953 45.6964 24.1295 44.2809 21.9352 42.0001Z" fill="white"/>
</svg>
