<svg width="82" height="82" viewBox="0 0 82 82" fill="none" xmlns="http://www.w3.org/2000/svg">
<g filter="url(#filter0_d_5_61)">
<path d="M40.8004 0.120605C20.5082 0.120605 4 16.5255 4 36.6895C4 56.8543 20.5082 73.2592 40.8004 73.2592C61.0925 73.2592 77.6016 56.8543 77.6016 36.6895C77.6016 16.5255 61.0916 0.120605 40.8004 0.120605ZM40.8004 67.9721C23.4426 67.9721 9.31977 53.9385 9.31977 36.6895C9.31977 19.4404 23.4417 5.40767 40.8004 5.40767C58.159 5.40767 72.2809 19.4404 72.2809 36.6895C72.2809 53.9385 58.159 67.9721 40.8004 67.9721Z" fill="white"/>
<path d="M51.4486 40.0559C51.4345 40.0559 51.422 40.0559 51.4079 40.0559L43.4606 40.1739V19.5068C43.4606 18.0467 42.2696 16.8633 40.8002 16.8633C39.3308 16.8633 38.1399 18.0467 38.1399 19.5068V42.858C38.1399 42.8633 38.1417 42.8686 38.1417 42.8739C38.1417 42.8827 38.1399 42.8906 38.1399 42.8977C38.1417 43.0052 38.1621 43.1065 38.1763 43.2096C38.1851 43.2739 38.186 43.34 38.1984 43.4035C38.2224 43.5171 38.2623 43.6229 38.3004 43.7295C38.3199 43.785 38.3323 43.8432 38.3554 43.896C38.4015 44.0044 38.4636 44.1031 38.523 44.2045C38.5505 44.2494 38.5709 44.2987 38.6001 44.3428C38.6675 44.4406 38.7482 44.5278 38.828 44.6168C38.8617 44.6539 38.8892 44.6962 38.9247 44.7323C39.0107 44.8169 39.1074 44.8883 39.204 44.9614C39.243 44.9905 39.2776 45.0257 39.3175 45.053C39.4222 45.1235 39.5366 45.179 39.651 45.2337C39.6909 45.2522 39.7263 45.2786 39.7671 45.2954C39.9001 45.3509 40.042 45.3896 40.1857 45.424C40.2123 45.4302 40.2371 45.4425 40.2646 45.4478C40.4366 45.4822 40.6149 45.5015 40.7976 45.5015C40.8109 45.5015 40.8251 45.5015 40.8384 45.5015L51.4868 45.3429C52.9553 45.3209 54.1285 44.119 54.1072 42.6598C54.0868 41.2137 52.8994 40.0559 51.4486 40.0559Z" fill="white"/>
</g>
<defs>
<filter id="filter0_d_5_61" x="0" y="0.120605" width="81.6016" height="81.1387" filterUnits="userSpaceOnUse" color-interpolation-filters="sRGB">
<feFlood flood-opacity="0" result="BackgroundImageFix"/>
<feColorMatrix in="SourceAlpha" type="matrix" values="0 0 0 0 0 0 0 0 0 0 0 0 0 0 0 0 0 0 127 0" result="hardAlpha"/>
<feOffset dy="4"/>
<feGaussianBlur stdDeviation="2"/>
<feComposite in2="hardAlpha" operator="out"/>
<feColorMatrix type="matrix" values="0 0 0 0 0 0 0 0 0 0 0 0 0 0 0 0 0 0 0.25 0"/>
<feBlend mode="normal" in2="BackgroundImageFix" result="effect1_dropShadow_5_61"/>
<feBlend mode="normal" in="SourceGraphic" in2="effect1_dropShadow_5_61" result="shape"/>
</filter>
</defs>
</svg>
