<svg width="79" height="74" viewBox="0 0 79 74" fill="none" xmlns="http://www.w3.org/2000/svg">
<path d="M44.4922 34.8095C44.7199 35.2381 45.1752 35.4703 45.6496 35.4703C45.8393 35.4703 46.048 35.4346 46.2377 35.3453C46.3136 35.3096 53.9405 31.6664 57.697 30.5413C58.38 30.3449 58.7595 29.6484 58.5318 29.0055C58.3231 28.3626 57.6022 28.0054 56.9002 28.2018C52.935 29.3805 45.365 33.0058 45.0424 33.1487C44.4353 33.488 44.1697 34.2202 44.4922 34.8095Z" fill="white"/>
<path d="M45.6496 20.8624C45.8393 20.8624 46.048 20.8267 46.2378 20.7374C46.3136 20.7017 53.9406 17.0585 57.6971 15.9334C58.3801 15.737 58.7595 15.0405 58.5319 14.3976C58.3232 13.7546 57.6022 13.3975 56.9002 13.5939C52.935 14.7726 45.365 18.3979 45.0425 18.5408C44.3974 18.8444 44.1508 19.5766 44.4733 20.1838C44.7389 20.6124 45.1943 20.8624 45.6496 20.8624Z" fill="white"/>
<path d="M76.7452 18.4153C76.0243 18.4153 75.4551 18.9689 75.4551 19.6296V67.1694C75.4551 69.1874 73.7097 70.8304 71.5658 70.8304H40.47V68.0266C42.3673 67.4016 47.2811 65.955 52.1191 65.955C63.4076 65.955 71.0535 68.3124 71.1294 68.3302C71.5278 68.4552 71.9452 68.3838 72.2867 68.1695C72.6282 67.9373 72.818 67.5802 72.818 67.1873V13.5398C72.818 12.9684 72.4006 12.4683 71.8124 12.3433C71.8124 12.3433 70.7879 12.129 69.0614 11.8254C68.3594 11.7004 67.6764 12.1469 67.5626 12.8076C67.4298 13.4684 67.9041 14.1113 68.6061 14.2363C69.2701 14.3435 69.8203 14.4506 70.2567 14.5399V65.5621C67.316 64.8299 60.8084 63.5262 52.1191 63.5262C46.4843 63.5262 40.9253 65.2764 39.2178 65.8657C37.7 65.2228 33.0897 63.5262 27.5119 63.5262C18.5948 63.5262 11.2335 64.9192 8.08411 65.6157V14.4863C10.6644 13.8792 18.3102 12.3254 27.5119 12.3254C32.236 12.3254 36.2771 13.7184 37.8708 14.3435V62.3118C37.8708 62.7583 38.1174 63.1512 38.5348 63.3655C38.9332 63.5798 39.4455 63.5798 39.8439 63.3477C39.9767 63.2762 52.8021 56.0613 64.1855 52.4896C64.7167 52.3289 65.0772 51.8645 65.0772 51.3288V1.34237C65.0772 0.949479 64.8685 0.574447 64.527 0.342285C64.1855 0.110122 63.7302 0.0565454 63.3318 0.199415C52.9728 3.86044 42.4811 10.0038 42.3862 10.0574C41.7791 10.4146 41.5894 11.1646 41.9688 11.7361C42.3483 12.3076 43.1451 12.4862 43.7522 12.129C43.8471 12.0754 52.9728 6.73569 62.497 3.12824V50.4537C53.6558 53.3468 44.4163 58.0615 40.47 60.1867V13.5398C40.47 13.0755 40.1854 12.6648 39.7491 12.4505C39.5214 12.3433 34.2091 9.87881 27.5119 9.87881C15.8059 9.87881 6.81296 12.254 6.43352 12.3612C5.88332 12.504 5.50387 12.9862 5.50387 13.5398V67.1873C5.50387 67.5623 5.69359 67.9373 6.01612 68.1516C6.24379 68.3124 6.50941 68.4016 6.79399 68.4016C6.90783 68.4016 7.04063 68.3838 7.15447 68.3481C7.24933 68.3302 16.2043 65.955 27.5308 65.955C32.2739 65.955 36.3151 67.348 37.8898 67.973V70.8304H6.79399C4.65011 70.8304 2.90465 69.1874 2.90465 67.1694V19.6296C2.90465 18.951 2.3165 18.4153 1.61453 18.4153C0.893575 18.4153 0.324402 18.9689 0.324402 19.6296V67.1694C0.324402 70.5268 3.22718 73.2592 6.79399 73.2592H71.5468C75.1136 73.2592 78.0164 70.5268 78.0164 67.1694V19.6296C78.0354 18.9689 77.4472 18.4153 76.7452 18.4153Z" fill="white"/>
<path d="M44.4922 27.5048C44.7199 27.9335 45.1752 28.1656 45.6496 28.1656C45.8393 28.1656 46.048 28.1299 46.2377 28.0406C46.3136 28.0049 53.9405 24.3617 57.697 23.2366C58.38 23.0402 58.7595 22.3437 58.5318 21.7008C58.3231 21.0579 57.6022 20.7007 56.9002 20.8971C52.935 22.0758 45.365 25.7011 45.0424 25.844C44.4353 26.1655 44.1697 26.8977 44.4922 27.5048Z" fill="white"/>
<path d="M44.4922 42.1308C44.7199 42.5594 45.1752 42.7916 45.6496 42.7916C45.8393 42.7916 46.048 42.7559 46.2377 42.6666C46.3136 42.6309 53.9405 38.9877 57.697 37.8626C58.38 37.6662 58.7595 36.9697 58.5318 36.3268C58.3231 35.6838 57.6022 35.3267 56.9002 35.5231C52.935 36.7018 45.365 40.3271 45.0424 40.47C44.4353 40.7914 44.1697 41.5236 44.4922 42.1308Z" fill="white"/>
<path d="M31.7048 22.7553C23.6985 20.9873 14.6107 23.2375 14.2312 23.3268C13.5482 23.5053 13.1308 24.1661 13.3206 24.8269C13.4723 25.3626 14.0036 25.7377 14.5727 25.7377C14.6866 25.7377 14.8004 25.7198 14.9142 25.702C15.0091 25.6841 23.7554 23.5053 31.1167 25.1483C31.8186 25.3091 32.5017 24.8983 32.6724 24.2376C32.8432 23.5589 32.4068 22.8982 31.7048 22.7553Z" fill="white"/>
<path d="M31.7048 30.0596C23.6985 28.2916 14.6107 30.5418 14.2312 30.6489C13.5482 30.8275 13.1308 31.4883 13.3206 32.149C13.4723 32.6848 14.0036 33.0598 14.5727 33.0598C14.6866 33.0598 14.8004 33.042 14.9142 33.0241C15.0091 33.0063 23.7554 30.8275 31.1167 32.4705C31.8186 32.6312 32.5017 32.2205 32.6724 31.5597C32.8432 30.8811 32.4068 30.2203 31.7048 30.0596Z" fill="white"/>
<path d="M44.4922 49.4536C44.7199 49.8822 45.1752 50.1144 45.6496 50.1144C45.8393 50.1144 46.048 50.0786 46.2377 49.9893C46.3136 49.9536 53.9405 46.3105 57.697 45.1854C58.38 44.9889 58.7595 44.2924 58.5318 43.6495C58.3231 43.0066 57.6022 42.6494 56.9002 42.8459C52.935 44.0245 45.365 47.6499 45.0424 47.7927C44.4353 48.1142 44.1697 48.8464 44.4922 49.4536Z" fill="white"/>
<path d="M31.7048 37.3809C23.6985 35.6129 14.6107 37.863 14.2312 37.9702C13.5482 38.1488 13.1308 38.8096 13.3206 39.4703C13.4723 40.0239 14.0036 40.3811 14.5727 40.3811C14.6866 40.3811 14.8004 40.3633 14.9142 40.3454C15.0091 40.3275 23.7554 38.1488 31.1167 39.7918C31.8186 39.9525 32.5017 39.5418 32.6724 38.881C32.8432 38.1845 32.4068 37.5416 31.7048 37.3809Z" fill="white"/>
<path d="M31.7048 52.0072C23.6985 50.2392 14.6107 52.4894 14.2312 52.5787C13.5482 52.7573 13.1308 53.4181 13.3206 54.0788C13.4723 54.6325 14.0036 54.9896 14.5727 54.9896C14.6866 54.9896 14.8004 54.9718 14.9142 54.9539C15.0091 54.9361 23.7554 52.7573 31.1167 54.4003C31.8186 54.5432 32.5017 54.1503 32.6724 53.4895C32.8432 52.8287 32.4068 52.168 31.7048 52.0072Z" fill="white"/>
<path d="M31.7048 44.7036C23.6985 42.9356 14.6107 45.1858 14.2312 45.293C13.5482 45.4715 13.1308 46.1323 13.3206 46.7931C13.4723 47.3467 14.0036 47.7039 14.5727 47.7039C14.6866 47.7039 14.8004 47.686 14.9142 47.6682C15.0091 47.6503 23.7554 45.4715 31.1167 47.1145C31.8186 47.2753 32.5017 46.8645 32.6724 46.2037C32.8432 45.5073 32.4068 44.8465 31.7048 44.7036Z" fill="white"/>
</svg>
