<svg width="118" height="22" viewBox="0 0 118 22" fill="none" xmlns="http://www.w3.org/2000/svg">
<g clip-path="url(#clip0_22_24)">
<path d="M21.6273 1.74707H0V22H21.6273V1.74707Z" fill="#ED1B34"/>
<path fill-rule="evenodd" clip-rule="evenodd" d="M18.1348 3.7677C17.9065 3.77338 17.6847 3.84012 17.4956 3.96004C17.3064 4.07996 17.1578 4.24807 17.0673 4.44452L14.3488 8.63714C14.1665 8.98585 14.056 9.36365 14.0232 9.75072C14.0143 9.98919 14.0617 10.2265 14.162 10.4459L17.1047 17.034H5.66654C5.46787 17.0199 5.28166 16.9379 5.14326 16.8036C5.00485 16.6693 4.92389 16.4921 4.91575 16.3055V4.94463C4.83035 3.39262 2.44985 3.39262 2.39825 4.99131L2.44807 17.0407C2.44193 17.3482 2.50118 17.6538 2.62238 17.9396C2.74357 18.2254 2.92428 18.4858 3.15397 18.7055C3.38366 18.9252 3.65773 19.0999 3.9602 19.2194C4.26268 19.3388 4.5875 19.4006 4.91575 19.4013H20.5117L16.7133 10.2925C16.6424 10.1221 16.6145 9.93864 16.6318 9.75646C16.6491 9.57428 16.711 9.39831 16.8129 9.24228L19.3322 5.40807C19.3784 5.23943 19.4064 5.06686 19.4158 4.89296C19.4056 4.58401 19.2649 4.29149 19.0248 4.07959C18.7846 3.86768 18.4645 3.75372 18.1348 3.7627V3.7677ZM11.9594 3.7677C12.1238 3.76141 12.2879 3.78743 12.4409 3.84409C12.594 3.90075 12.7327 3.98681 12.8482 4.09671C12.9637 4.20662 13.0533 4.33795 13.1113 4.48226C13.1694 4.62657 13.1945 4.78066 13.1852 4.93463V13.1382C13.1852 15.0119 11.6925 16.2572 9.86177 16.2572C8.08262 16.2572 6.59348 15.0119 6.59348 13.1382V4.94463C6.59348 3.39262 9.0398 3.39262 9.0398 4.94463V13.0715C9.0398 14.1551 10.7371 14.2501 10.7371 13.0715V4.94463C10.729 4.79098 10.7548 4.6374 10.813 4.49354C10.8711 4.34967 10.9604 4.21862 11.0751 4.10859C11.1899 3.99856 11.3277 3.91193 11.4798 3.85413C11.632 3.79633 11.7952 3.76861 11.9594 3.7727V3.7677Z" fill="white"/>
<path fill-rule="evenodd" clip-rule="evenodd" d="M29.7864 4.09766V12.5296C29.7864 14.6384 29.548 15.8053 27.7191 15.8053C27.4084 15.8241 27.0968 15.7844 26.8028 15.6886V19.3178C27.3525 19.5032 27.9363 19.5832 28.5197 19.5528C33.6685 19.5528 33.898 15.9237 33.898 13.8149V7.72848H36.8728V19.3195H40.995V4.09766H29.7864Z" fill="#2D2D2D"/>
<path fill-rule="evenodd" clip-rule="evenodd" d="M42.365 4.09766L47.9729 15.1052L45.9126 19.3194H50.3747L57.0109 4.09766H52.5488L50.147 10.5375L47.2843 4.09766H42.365Z" fill="#2D2D2D"/>
<path fill-rule="evenodd" clip-rule="evenodd" d="M58.2688 19.3194H62.3893V12.763L66.6236 19.3194H71.8881L66.0525 11.4743L71.7725 4.09766H66.8531L62.3893 10.5375V4.09766H58.2688V19.3194Z" fill="#2D2D2D"/>
<path fill-rule="evenodd" clip-rule="evenodd" d="M78.6382 19.7895C84.1304 19.7895 86.6444 15.807 86.6444 11.7094C86.6444 7.72846 84.1269 3.74756 78.6382 3.74756C73.2599 3.74756 70.7424 7.72846 70.7424 11.7094C70.7424 15.807 73.2599 19.7895 78.6382 19.7895ZM78.6382 16.1587C76.8057 16.1587 74.9767 14.6367 74.9767 11.7094C74.9767 8.78203 76.8057 7.37505 78.6382 7.37505C80.5828 7.37505 82.4136 8.78037 82.4136 11.7094C82.4136 14.6384 80.5828 16.1587 78.6382 16.1587Z" fill="#2D2D2D"/>
<path fill-rule="evenodd" clip-rule="evenodd" d="M88.7063 4.0976V19.3194H92.713L98.433 10.1873V19.3194H102.44V4.0976H98.433L92.713 13.2313V4.0976H88.7063ZM95.6877 3.27908C97.4046 3.27908 99.1197 2.69228 99.9203 0.936879L97.5185 0C97.1751 1.16693 96.145 1.28863 95.6877 1.28863C95.3426 1.28863 94.1986 1.17027 93.9708 0L91.569 0.936879C92.254 2.69228 94.0847 3.27908 95.6877 3.27908Z" fill="#2D2D2D"/>
<path fill-rule="evenodd" clip-rule="evenodd" d="M106.786 4.09766V12.5296C106.786 14.6367 106.557 15.807 104.728 15.807C104.417 15.8258 104.105 15.7861 103.811 15.6903V19.3194C104.361 19.5049 104.945 19.5848 105.528 19.5545C110.677 19.5545 110.907 15.9253 110.907 13.8165V7.72848H113.881V19.3194H118V4.09766H106.786Z" fill="#2D2D2D"/>
</g>
<defs>
<clipPath id="clip0_22_24">
<rect width="118" height="22" fill="white"/>
</clipPath>
</defs>
</svg>
