<svg width="94" height="42" viewBox="0 0 94 42" fill="none" xmlns="http://www.w3.org/2000/svg">
<g clip-path="url(#clip0_22_14)">
<path fill-rule="evenodd" clip-rule="evenodd" d="M29.0325 27.4595H34.9989V29.2713H32.1613V42H29.0325V27.4595Z" fill="#0079C2"/>
<path fill-rule="evenodd" clip-rule="evenodd" d="M38.535 36.5407L39.0712 29.2696H39.2555L39.7917 36.5407H38.535ZM35.0727 41.9983H38.1352L38.4245 38.1333H39.8986L40.1897 41.9949H43.2503L41.6196 27.4561H36.7034L35.0727 41.9983Z" fill="#0079C2"/>
<path fill-rule="evenodd" clip-rule="evenodd" d="M47.7296 36.9103V39.6503C47.7253 39.712 47.7348 39.774 47.7574 39.8322C47.7801 39.8904 47.8155 39.9436 47.8613 39.9884C47.9072 40.0333 47.9625 40.0689 48.0239 40.0929C48.0853 40.1169 48.1513 40.1289 48.2179 40.1281C48.2846 40.1276 48.3505 40.1149 48.4119 40.0905C48.4732 40.0662 48.5287 40.0308 48.5752 39.9863C48.6216 39.9418 48.6581 39.8892 48.6825 39.8316C48.7069 39.7739 48.7187 39.7122 48.7173 39.6503V36.2664C48.7173 35.8126 48.6288 35.3126 47.4606 35.3126H46.191V33.7149H47.5122C48.3966 33.7149 48.7173 33.5248 48.7173 32.6309V29.7419C48.7187 29.68 48.7069 29.6184 48.6825 29.5607C48.6581 29.503 48.6216 29.4504 48.5752 29.4059C48.5287 29.3615 48.4732 29.326 48.4119 29.3017C48.3505 29.2774 48.2846 29.2646 48.2179 29.2642C48.1509 29.262 48.0842 29.2731 48.0222 29.2966C47.9601 29.3202 47.9042 29.3557 47.858 29.4009C47.8119 29.4461 47.7766 29.4998 47.7544 29.5586C47.7323 29.6174 47.7238 29.6799 47.7296 29.7419V32.1137H44.5971V30.0588C44.5971 29.045 44.7261 27.4609 46.9189 27.4609H49.5096C51.7023 27.4609 51.8424 29.045 51.8424 30.0588V32.3826C51.8424 33.9683 50.6502 34.3964 49.7141 34.3605V34.5043C51.8184 34.4564 51.8424 35.9582 51.8424 36.4702V39.4003C51.8424 40.4278 51.7023 41.9981 49.5096 41.9981H46.9225C44.7298 41.9981 44.6008 40.426 44.6008 39.4003V36.9103H47.7296Z" fill="#0079C2"/>
<path fill-rule="evenodd" clip-rule="evenodd" d="M53.8988 27.4595H61.144V42H58.0152V29.2713H57.0276V42H53.8988V27.4595Z" fill="#0079C2"/>
<path fill-rule="evenodd" clip-rule="evenodd" d="M66.3255 35.455V29.2695H66.7364C67.07 29.2695 67.3132 29.5333 67.3132 29.9973V34.7289C67.3132 35.193 67.07 35.455 66.7364 35.455H66.3255ZM63.1931 41.9983H66.3255V37.0527H68.1203C70.3001 37.0527 70.442 35.479 70.442 34.4549V30.0573C70.442 29.0435 70.3001 27.4595 68.1203 27.4595H63.1967L63.1931 41.9983Z" fill="#0079C2"/>
<path fill-rule="evenodd" clip-rule="evenodd" d="M76.6093 39.6505C76.6108 39.7125 76.599 39.7741 76.5746 39.8318C76.5502 39.8895 76.5137 39.9421 76.4672 39.9866C76.4208 40.031 76.3652 40.0664 76.3039 40.0908C76.2426 40.1151 76.1766 40.1279 76.1099 40.1283C76.0434 40.1292 75.9775 40.1172 75.9162 40.0931C75.8549 40.0691 75.7997 40.0335 75.7539 39.9886C75.7082 39.9437 75.673 39.8905 75.6506 39.8323C75.6281 39.7741 75.6189 39.7122 75.6235 39.6505V29.7422C75.6177 29.6803 75.6262 29.618 75.6482 29.5593C75.6702 29.5006 75.7054 29.447 75.7513 29.4018C75.7973 29.3567 75.853 29.3211 75.9148 29.2974C75.9766 29.2737 76.0431 29.2625 76.1099 29.2644C76.1766 29.2648 76.2426 29.2776 76.3039 29.3019C76.3652 29.3263 76.4208 29.3617 76.4672 29.4062C76.5137 29.4506 76.5502 29.5032 76.5746 29.5609C76.599 29.6186 76.6108 29.6802 76.6093 29.7422V39.6454V39.6505ZM72.4947 39.4005C72.4947 40.428 72.6366 41.9983 74.8164 41.9983H77.4201C79.5999 41.9983 79.7418 40.4263 79.7418 39.4005V30.0573C79.7418 29.0435 79.5999 27.4595 77.4201 27.4595H74.8146C72.6347 27.4595 72.4929 29.0435 72.4929 30.0573L72.4947 39.4005Z" fill="#0079C2"/>
<path fill-rule="evenodd" clip-rule="evenodd" d="M89.9222 27.4595H94V42H90.8712V32.8811H90.7551L89.1391 42H86.6387L85.0356 32.8811H84.9195V42H81.7907V27.4595H85.8556L87.8953 37.6846L89.9222 27.4595Z" fill="#0079C2"/>
<path fill-rule="evenodd" clip-rule="evenodd" d="M24.9787 7.57938C24.0206 3.6818 21.6196 0.512028 21.2935 0C20.772 0.726086 18.8557 3.52768 17.8828 6.62554C16.9106 9.72631 16.621 12.9774 17.0315 16.1845C17.4 19.2122 18.7728 22.322 18.7728 22.322C19.5098 23.9437 20.5988 25.6956 21.3119 26.5535C22.3493 25.2897 24.7521 21.5223 25.5076 16.6127C25.924 13.8727 25.9424 11.4752 24.9861 7.57938H24.9787ZM21.2935 25.5757C20.8236 24.7537 20.0921 23.192 20.0239 20.7603C20.0055 18.4244 21.0152 16.4106 21.3137 15.9927C21.5772 16.4106 22.4451 18.1624 22.5502 20.5582C22.5986 22.3025 22.1674 24.0295 21.2972 25.5757H21.2935ZM24.706 14.1946C24.6851 15.5401 24.5272 16.8806 24.2343 18.1984C24.2961 16.2909 24.1211 14.3832 23.7129 12.513C23.313 10.7372 22.1798 7.75748 21.2769 6.3875C20.4422 7.69925 19.414 10.2731 18.8815 12.501C18.3489 14.7289 18.3287 17.4363 18.3287 18.2463C17.9991 16.4079 17.8645 14.5437 17.927 12.6808C18.0291 10.9729 18.3212 9.27937 18.7986 7.62733C19.8599 4.44556 21.0613 2.40773 21.2879 2.08579C22.3597 3.80937 23.2065 5.64553 23.8105 7.55541C24.4351 9.71977 24.7346 11.954 24.7005 14.1946H24.706Z" fill="#0079C2"/>
<path fill-rule="evenodd" clip-rule="evenodd" d="M22.9131 27.4595H15.631V31.9992C15.631 31.9992 15.642 31.9872 15.6494 31.9872C16.0545 31.5974 16.539 31.2863 17.0747 31.0723C17.6104 30.8582 18.1867 30.7455 18.7698 30.7406C19.3529 30.7356 19.9312 30.8387 20.4711 31.0437C21.0109 31.2486 21.5014 31.5514 21.914 31.9344C22.3266 32.3174 22.653 32.7729 22.8742 33.2744C23.0954 33.7758 23.2069 34.3132 23.2023 34.8551C23.1977 35.397 23.0771 35.9327 22.8474 36.4308C22.6177 36.929 22.2836 37.3796 21.8646 37.7565C21.8646 37.7685 21.8499 37.7685 21.8407 37.7805C21.8407 37.7805 21.8241 37.7925 21.8167 37.8045C20.7936 38.7505 19.5353 39.4475 18.1532 39.8338C16.7711 40.2202 15.3079 40.284 13.893 40.0195C12.4781 39.755 11.1551 39.1705 10.0412 38.3176C8.92734 37.4648 8.05683 36.3699 7.50676 35.1298C6.95669 33.8898 6.74401 32.5428 6.88755 31.2082C7.03109 29.8736 7.52643 28.5924 8.32972 27.4781C9.13301 26.3637 10.2195 25.4506 11.493 24.8195C12.7665 24.1884 14.1877 23.8588 15.631 23.8599V12.9429C13.0393 12.9426 10.4883 13.5414 8.20767 14.6854C5.92701 15.8294 3.98835 17.4826 2.56626 19.4962C1.14417 21.5098 0.283319 23.8205 0.0612341 26.2202C-0.160851 28.6199 0.262805 31.0333 1.29405 33.243C2.32529 35.4526 3.93173 37.3892 5.9687 38.8784C8.00567 40.3675 10.4092 41.3623 12.9628 41.7733C15.5165 42.1844 18.14 41.9986 20.5972 41.2328C23.0543 40.4671 25.268 39.1453 27.0387 37.3867V27.4543L22.9131 27.4595Z" fill="#0079C2"/>
</g>
<defs>
<clipPath id="clip0_22_14">
<rect width="94" height="42" fill="white"/>
</clipPath>
</defs>
</svg>
