<svg width="186" height="186" viewBox="0 0 186 186" fill="none" xmlns="http://www.w3.org/2000/svg">
<g clip-path="url(#clip0_5_102)">
<path d="M31.5285 36.8551C33.1604 36.8551 34.4833 35.5379 34.4833 33.9132V6.69745H151.787V33.9132C151.787 35.5379 153.11 36.8551 154.742 36.8551C156.374 36.8551 157.697 35.5379 157.697 33.9132V3.75546C157.697 2.1307 156.374 0.813477 154.742 0.813477H31.5285C29.8966 0.813477 28.5737 2.1307 28.5737 3.75546V33.9132C28.5737 35.5379 29.8966 36.8551 31.5285 36.8551Z" fill="black"/>
<path d="M157.697 114.656V77.0623C157.697 75.4375 156.375 74.1203 154.743 74.1203C153.111 74.1203 151.788 75.4375 151.788 77.0623V114.391H142.259V68.2363H166.562C168.194 68.2363 169.517 66.9191 169.517 65.2944V45.6811C169.517 44.0564 168.194 42.7391 166.562 42.7391H142.259V33.9132C142.259 32.2884 140.936 30.9712 139.304 30.9712H46.9669C45.3351 30.9712 44.0121 32.2884 44.0121 33.9132V42.7391H19.7092C18.0773 42.7391 16.7543 44.0564 16.7543 45.6811V65.2944C16.7543 66.9191 18.0773 68.2363 19.7092 68.2363H44.0121V114.391H34.4833V77.0623C34.4833 75.4375 33.1604 74.1203 31.5285 74.1203C29.8966 74.1203 28.5737 75.4375 28.5737 77.0623V114.656C20.7461 116.05 14.7845 122.873 14.7845 131.062V162.243C14.7845 163.868 16.1074 165.185 17.7393 165.185H18.7242V182.236C18.7242 183.861 20.0472 185.178 21.6791 185.178H46.9669C48.5988 185.178 49.9217 183.861 49.9217 182.236V174.011C49.9217 172.387 48.5988 171.069 46.9669 171.069C45.3351 171.069 44.0121 172.387 44.0121 174.011V179.294H24.6339V165.185H161.637V179.294H142.259V174.011C142.259 172.387 140.936 171.069 139.304 171.069C137.672 171.069 136.349 172.387 136.349 174.011V182.236C136.349 183.861 137.672 185.178 139.304 185.178H164.592C166.224 185.178 167.547 183.861 167.547 182.236V165.185H168.531C170.163 165.185 171.486 163.868 171.486 162.243V131.062C171.487 122.873 165.525 116.05 157.697 114.656ZM154.743 120.275C160.717 120.275 165.577 125.114 165.577 131.062V143.611H142.259V120.275H154.743ZM165.577 159.301H20.6941V149.495H165.577V159.301H165.577ZM49.9221 68.2363H136.349V143.61H49.9221V68.2363ZM163.608 62.3524H157.698V48.6231H163.608V62.3524ZM151.788 48.6231V62.3524H142.259V48.6231H151.788ZM136.35 62.3524H96.0908V36.8552H136.35V62.3524ZM49.9221 36.8552H90.1811V62.3524H49.9221V36.8552ZM44.0125 62.3524H34.4837V48.6231H44.0125V62.3524ZM22.6644 48.6231H28.5741V62.3524H22.6644V48.6231ZM31.5289 120.275H44.0125V143.611H20.6945V131.062C20.6945 125.114 25.555 120.275 31.5289 120.275Z" fill="black"/>
<path d="M58.7863 102.423H127.485C129.116 102.423 130.439 101.106 130.439 99.4808C130.439 90.2881 122.928 82.8096 113.695 82.8096H72.5755C63.3426 82.8096 55.8314 90.2881 55.8314 99.4808C55.8314 101.106 57.1544 102.423 58.7863 102.423ZM72.5755 88.6935H113.695C118.646 88.6935 122.831 92.016 124.12 96.5388H62.1508C63.4399 92.0156 67.6255 88.6935 72.5755 88.6935Z" fill="black"/>
<path d="M127.485 108.307H58.7863C57.1544 108.307 55.8314 109.624 55.8314 111.249C55.8314 112.874 57.1544 114.191 58.7863 114.191H127.485C129.116 114.191 130.439 112.874 130.439 111.249C130.439 109.624 129.117 108.307 127.485 108.307Z" fill="black"/>
<path d="M127.485 120.075H58.7863C57.1544 120.075 55.8314 121.392 55.8314 123.017C55.8314 124.641 57.1544 125.959 58.7863 125.959H127.485C129.116 125.959 130.439 124.641 130.439 123.017C130.439 121.392 129.117 120.075 127.485 120.075Z" fill="black"/>
<path d="M127.485 131.843H58.7863C57.1544 131.843 55.8314 133.16 55.8314 134.785C55.8314 136.41 57.1544 137.727 58.7863 137.727H127.485C129.116 137.727 130.439 136.41 130.439 134.785C130.439 133.16 129.117 131.843 127.485 131.843Z" fill="black"/>
</g>
<defs>
<clipPath id="clip0_5_102">
<rect width="185.169" height="184.364" fill="white" transform="translate(0.550842 0.813477)"/>
</clipPath>
</defs>
</svg>
