<svg width="66" height="56" viewBox="0 0 66 56" fill="none" xmlns="http://www.w3.org/2000/svg">
<path d="M11.0414 10.9475C11.623 10.9475 12.0946 10.5474 12.0946 10.0539V1.78723H53.9053V10.0539C53.9053 10.5474 54.3768 10.9475 54.9585 10.9475C55.5401 10.9475 56.0117 10.5474 56.0117 10.0539V0.893617C56.0117 0.400102 55.5401 0 54.9585 0H11.0414C10.4597 0 9.98819 0.400102 9.98819 0.893617V10.0539C9.98819 10.5474 10.4597 10.9475 11.0414 10.9475Z" fill="white"/>
<path d="M56.0118 34.5793V23.1604C56.0118 22.6669 55.5403 22.2668 54.9586 22.2668C54.377 22.2668 53.9054 22.6669 53.9054 23.1604V34.4987H50.5091V20.4795H59.1714C59.753 20.4795 60.2246 20.0794 60.2246 19.5859V13.6285C60.2246 13.135 59.753 12.7349 59.1714 12.7349H50.5091V10.054C50.5091 9.5605 50.0376 9.1604 49.4559 9.1604H16.5441C15.9625 9.1604 15.4909 9.5605 15.4909 10.054V12.7349H6.82862C6.24698 12.7349 5.77543 13.135 5.77543 13.6285V19.5859C5.77543 20.0794 6.24698 20.4795 6.82862 20.4795H15.4909V34.4987H12.0946V23.1604C12.0946 22.6669 11.623 22.2668 11.0414 22.2668C10.4597 22.2668 9.9882 22.6669 9.9882 23.1604V34.5793C7.19822 35.0027 5.0733 37.0753 5.0733 39.5626V49.0338C5.0733 49.5273 5.54485 49.9274 6.12649 49.9274H6.47756V55.1065C6.47756 55.6 6.94911 56.0001 7.53075 56.0001H16.5441C17.1257 56.0001 17.5973 55.6 17.5973 55.1065V52.6083C17.5973 52.1148 17.1257 51.7147 16.5441 51.7147C15.9625 51.7147 15.4909 52.1148 15.4909 52.6083V54.2129H8.58394V49.9274H57.4159V54.2129H50.509V52.6083C50.509 52.1148 50.0374 51.7147 49.4558 51.7147C48.8741 51.7147 48.4026 52.1148 48.4026 52.6083V55.1065C48.4026 55.6 48.8741 56.0001 49.4558 56.0001H58.4691C59.0508 56.0001 59.5223 55.6 59.5223 55.1065V49.9274H59.8734C60.455 49.9274 60.9266 49.5273 60.9266 49.0338V39.5626C60.9267 37.0753 58.8018 35.0027 56.0118 34.5793ZM54.9586 36.286C57.088 36.286 58.8203 37.7558 58.8203 39.5626V43.3743H50.5091V36.286H54.9586ZM58.8203 48.1402H7.17969V45.1615H58.8202V48.1402H58.8203ZM17.5974 20.4795H48.4027V43.3741H17.5974V20.4795ZM58.1183 18.6923H56.012V14.5221H58.1183V18.6923ZM53.9056 14.5221V18.6923H50.5092V14.5221H53.9056ZM48.4029 18.6923H34.0533V10.9476H48.4029V18.6923ZM17.5974 10.9476H31.947V18.6923H17.5974V10.9476ZM15.4911 18.6923H12.0947V14.5221H15.4911V18.6923ZM7.88195 14.5221H9.98834V18.6923H7.88195V14.5221ZM11.0415 36.286H15.4911V43.3743H7.17983V39.5626C7.17983 37.7558 8.91226 36.286 11.0415 36.286Z" fill="white"/>
<path d="M20.7569 30.8635H45.243C45.8247 30.8635 46.2962 30.4634 46.2962 29.9698C46.2962 27.1776 43.619 24.906 40.3281 24.906H25.6718C22.3809 24.906 19.7037 27.1776 19.7037 29.9698C19.7037 30.4634 20.1752 30.8635 20.7569 30.8635ZM25.6718 26.6932H40.3281C42.0926 26.6932 43.5843 27.7024 44.0438 29.0762H21.9561C22.4156 27.7023 23.9075 26.6932 25.6718 26.6932Z" fill="white"/>
<path d="M45.2432 32.6506H20.7569C20.1752 32.6506 19.7037 33.0507 19.7037 33.5443C19.7037 34.0378 20.1752 34.4379 20.7569 34.4379H45.243C45.8247 34.4379 46.2962 34.0378 46.2962 33.5443C46.2962 33.0507 45.8248 32.6506 45.2432 32.6506Z" fill="white"/>
<path d="M45.2432 36.2251H20.7569C20.1752 36.2251 19.7037 36.6252 19.7037 37.1187C19.7037 37.6122 20.1752 38.0123 20.7569 38.0123H45.243C45.8247 38.0123 46.2962 37.6122 46.2962 37.1187C46.2962 36.6252 45.8248 36.2251 45.2432 36.2251Z" fill="white"/>
<path d="M45.2432 39.7996H20.7569C20.1752 39.7996 19.7037 40.1997 19.7037 40.6932C19.7037 41.1867 20.1752 41.5868 20.7569 41.5868H45.243C45.8247 41.5868 46.2962 41.1867 46.2962 40.6932C46.2962 40.1997 45.8248 39.7996 45.2432 39.7996Z" fill="white"/>
</svg>
